<svg width="518" height="452" fill="none" xmlns="http://www.w3.org/2000/svg"><g filter="url(#filter0_d)"><path d="M240.953 433.806c116.685 0 211.277-3.685 211.277-8.231 0-4.546-94.592-8.231-211.277-8.231-116.684 0-211.276 3.685-211.276 8.231 0 4.546 94.592 8.231 211.276 8.231z" fill="#E3E5FC"/><path d="M434.557 336.138H31.643c-10.875 0-19.77-8.895-19.77-19.769V22.516c0-10.873 8.895-19.768 19.77-19.768h402.914c10.875 0 19.77 8.895 19.77 19.768V316.37c0 10.874-8.895 19.769-19.77 19.769z" fill="#5E2AD7"/><path d="M422.197 308.331H42.091c-10.875 0-19.77-8.894-19.77-19.768V37.017c0-10.873 8.895-19.768 19.77-19.768h380.106c10.874 0 19.77 8.895 19.77 19.768v251.546c.004 10.869-8.892 19.768-19.77 19.768zm-165.726 12.602H225.44c-.757 0-1.372-.62-1.372-1.372 0-.756.62-1.371 1.372-1.371h31.031c.757 0 1.372.62 1.372 1.371a1.38 1.38 0 01-1.372 1.372zM35.477 13.947a3.087 3.087 0 100-6.173 3.087 3.087 0 000 6.173z" fill="#E3E5FC"/><path d="M48.77 13.947a3.087 3.087 0 100-6.173 3.087 3.087 0 000 6.173z" fill="#fff"/><path d="M62.182 13.947a3.087 3.087 0 100-6.173 3.087 3.087 0 000 6.173z" fill="#4B369D"/><path d="M383.514 185.87h-75.242a3.684 3.684 0 01-3.672-3.671 3.684 3.684 0 013.672-3.672h75.242a3.684 3.684 0 013.672 3.672c-.005 2.018-1.654 3.671-3.672 3.671zm0 16.805h-75.242a3.685 3.685 0 01-3.672-3.672 3.684 3.684 0 013.672-3.671h75.242a3.684 3.684 0 013.672 3.671 3.685 3.685 0 01-3.672 3.672zm0 16.81h-75.242a3.685 3.685 0 01-3.672-3.672 3.684 3.684 0 013.672-3.671h75.242a3.684 3.684 0 013.672 3.671c-.005 2.018-1.654 3.672-3.672 3.672zm0 18.946h-75.242a3.684 3.684 0 01-3.672-3.671 3.684 3.684 0 013.672-3.672h75.242a3.684 3.684 0 013.672 3.672 3.685 3.685 0 01-3.672 3.671zm0 16.809h-75.242a3.684 3.684 0 01-3.672-3.671 3.684 3.684 0 013.672-3.672h75.242a3.684 3.684 0 013.672 3.672c-.005 2.018-1.654 3.671-3.672 3.671zm0 16.809h-75.242a3.684 3.684 0 01-3.672-3.671 3.684 3.684 0 013.672-3.672h75.242a3.684 3.684 0 013.672 3.672c-.005 2.018-1.654 3.671-3.672 3.671zM78.87 142.429h155.628c10.875 0 19.77-8.895 19.77-19.769V66.424c0-10.873-8.895-19.768-19.77-19.768H78.869c-10.874 0-19.77 8.895-19.77 19.768v56.236c-.004 10.874 8.892 19.769 19.77 19.769z" fill="#fff"/><path d="M63.338 272.097a3.71 3.71 0 01-3.698-3.698v-85.023a3.709 3.709 0 013.698-3.697 3.709 3.709 0 013.698 3.697v85.023a3.71 3.71 0 01-3.698 3.698zm17.708 0a3.71 3.71 0 01-3.698-3.698v-37.941a3.71 3.71 0 013.698-3.698 3.71 3.71 0 013.698 3.698v37.941a3.71 3.71 0 01-3.698 3.698zm17.708 0a3.71 3.71 0 01-3.698-3.698v-74.127a3.71 3.71 0 013.698-3.698 3.71 3.71 0 013.698 3.698v74.127a3.711 3.711 0 01-3.698 3.698zm17.703 0a3.709 3.709 0 01-3.698-3.698V241.16a3.709 3.709 0 013.698-3.697 3.71 3.71 0 013.698 3.697v27.239a3.706 3.706 0 01-3.698 3.698zm17.708 0a3.709 3.709 0 01-3.698-3.698v-45.916a3.709 3.709 0 013.698-3.698 3.71 3.71 0 013.698 3.698v45.916a3.706 3.706 0 01-3.698 3.698zm17.708 0a3.709 3.709 0 01-3.698-3.698v-13.604a3.71 3.71 0 013.698-3.698 3.709 3.709 0 013.698 3.698v13.604a3.709 3.709 0 01-3.698 3.698z" fill="#FBC04C"/><path d="M84.427 113.413c10.444 14.374 30.562 17.562 44.932 7.119L91.542 68.486c-14.37 10.438-17.558 30.554-7.115 44.927zm10.501-47.39l17.325 23.845 24.309-17.658c-9.859-13.02-28.359-15.829-41.634-6.186z" fill="#5E2AD7"/><path d="M147.854 70.174c-.159-.22-.343-.413-.506-.628l-32.641 23.708 24.211 33.324c18.047-13.112 22.044-38.363 8.936-56.404zm27.329 1.262a3.925 3.925 0 013.914-3.913h52.481a3.925 3.925 0 013.914 3.913 3.925 3.925 0 01-3.914 3.913h-52.481a3.925 3.925 0 01-3.914-3.913z" fill="#F3EA93"/><path d="M175.183 90.176a3.925 3.925 0 013.914-3.913h17.795a3.925 3.925 0 013.914 3.913 3.925 3.925 0 01-3.914 3.913h-17.795a3.925 3.925 0 01-3.914-3.913zM197.896 248.6c-19.458 0-35.288-15.829-35.288-35.285 0-19.456 15.83-35.285 35.288-35.285s35.288 15.829 35.288 35.285c0 19.456-15.83 35.285-35.288 35.285zm0-67.273c-17.642 0-31.995 14.352-31.995 31.988 0 17.64 14.353 31.991 31.995 31.991 17.642 0 31.99-14.351 31.99-31.991 0-17.641-14.348-31.988-31.99-31.988z" fill="#5E2AD7"/><path d="M197.896 237.066c-13.1 0-23.754-10.653-23.754-23.752 0-13.098 10.654-23.752 23.754-23.752 13.099 0 23.754 10.654 23.754 23.752 0 13.099-10.655 23.752-23.754 23.752zm0-44.206c-11.279 0-20.461 9.176-20.461 20.454 0 11.279 9.177 20.459 20.461 20.459 11.279 0 20.456-9.176 20.456-20.459 0-11.278-9.173-20.454-20.456-20.454z" fill="#5E2AD7"/><path d="M197.896 226.937c-7.51 0-13.623-6.112-13.623-13.622s6.108-13.622 13.623-13.622 13.623 6.112 13.623 13.622-6.112 13.622-13.623 13.622zm0-23.946c-5.694 0-10.325 4.63-10.325 10.324s4.631 10.324 10.325 10.324c5.695 0 10.325-4.63 10.325-10.324s-4.63-10.324-10.325-10.324z" fill="#5E2AD7"/><path d="M196.115 216.274l.379-8.385a1.65 1.65 0 011.719-1.574 1.65 1.65 0 011.574 1.719l-.105 2.322 54.64-32.097a1.648 1.648 0 011.671 2.84l-59.878 35.175z" fill="#F3EA93"/><path d="M203.524 216.594h-5.628a1.65 1.65 0 010-3.297h5.628a1.648 1.648 0 110 3.297z" fill="#FDC510"/><path d="M297.965 142.987a1.644 1.644 0 01-1.443-2.44l13.526-24.627 10.804 10.337 7.203-11.423 6.319 3.826 15.113-37.497 10.532 18.682 9.911-14.677 8.36 10.254 16.907-31.134c.537-.99 1.245-2.071 1.992-3.219.616-.945 1.271-1.948 1.843-2.924a76.04 76.04 0 00-1.909.87c-1.147.537-2.229 1.043-3.205 1.373a1.655 1.655 0 01-2.089-1.038 1.651 1.651 0 011.038-2.089c.8-.268 1.798-.734 2.858-1.23 2.102-.981 4.27-1.997 6.191-2.146l2.344-.18-.629 2.264c-.611 2.194-2.172 4.586-3.685 6.903-.712 1.09-1.385 2.12-1.855 2.99l-19.252 35.452-8.662-10.627-10.413 15.419-9.788-17.358-14.001 34.73-6.865-4.155-7.624 12.096-10.615-10.157-11.46 20.868c-.299.55-.862.857-1.446.857z" fill="#F3EA93"/><path d="M403.007 65.408a1.649 1.649 0 01-1.649-1.648v-8.24a1.649 1.649 0 013.298 0v8.24a1.65 1.65 0 01-1.649 1.648z" fill="#5A54FF"/><path d="M296.32 152.594a1.655 1.655 0 01-1.649-1.648V45.781c0-.906.743-1.649 1.649-1.649s1.649.743 1.649 1.649V150.95a1.65 1.65 0 01-1.649 1.644z" fill="#5E2AD7"/><path d="M286.298 142.987c0-.906.743-1.649 1.649-1.649h105.179c.906 0 1.649.743 1.649 1.649s-.743 1.649-1.649 1.649H287.943a1.654 1.654 0 01-1.645-1.649zm71.056-72.962h-30.619c-3.021 0-5.492-2.47-5.492-5.492 0-3.02 2.471-5.491 5.492-5.491h30.619c3.021 0 5.492 2.47 5.492 5.492 0 3.02-2.471 5.491-5.492 5.491z" fill="#5E2AD7"/><path d="M379.388 94.089h-1.235v1.649h1.235v-1.65zm0-3.1h-1.235v-3.1h1.235v3.1zm0-6.204h-1.235v-3.1h1.235v3.1zm0-6.204h-1.235v-3.1h1.235v3.1zm0-6.2h-1.235v-3.1h1.235v3.1zm0-6.203h-1.235v-1.029h-1.029v-1.236h2.264v2.265zm-6.472-2.265h-4.213v1.236h4.213v-1.236zm-8.421 0h-1.649v1.236h1.649v-1.236z" fill="#4B369D"/><path d="M379.534 103.094h-1.522a3.753 3.753 0 01-3.742-3.742V97.83a3.753 3.753 0 013.742-3.742h1.522a3.753 3.753 0 013.742 3.742v1.52a3.753 3.753 0 01-3.742 3.743z" fill="#5E2AD7"/><path d="M495.121 178.491s4.876 23.185 4.463 32.66c-.414 9.476-8.65 23.612-8.65 23.612l-5.32-56.267h9.507v-.005z" fill="#EAC2AB"/><path d="M466.015 135.978l1.073 19.971 15.632 6.028s-9.401-13.754-7.805-25.999c1.588-12.245-8.9 0-8.9 0z" fill="#D4A79A"/><path d="M452.044 95.118s-3.403 4.51-.083 18.339c3.319 13.833 8.711 25.643 12.879 24.807 11.525-2.304 15.571-10.447 19.568-17.438 4.899-8.574-4.828-29.485-4.828-29.485l-9.19-4.96-18.346 8.737z" fill="#EAC2AB"/><path d="M439.772 91.394c-1.007-3.245.76-7.396 3.122-9.4.91-.775 2.058-1.267 3.205-1.153.862.084 1.707.502 2.564.36 2.568-.426 2.876-4.211 5.259-4.98 1.777-.572 3.483 1.037 5.295 1.463 1.367.321 2.783-.048 4.159-.334 3.874-.813 7.467-2.673 11.438-3.152 3.35-.405 6.846-.027 9.876 1.6 3.166 1.697 5.435 4.82 6.644 8.424.721 2.155.954 4.556.374 6.763.475-1.816 3.742.136 4.274.849 2.076 2.805 2.432 8.886 1.328 12.148-.875 2.585-2.313 4.872-3.113 7.492-.95 3.127-1.346 6.596-3.078 9.366-1.983 3.179-12.664 13.613-16.055 12.733 1.047-2.875-4.054-5.487-3.865-8.578.189-3.091 2.12-19.179-13.086-22.191-6.046-1.196 1.71-3.157-4.345-2.915-2.876.114-5.756-.444-8.451-1.54-2.085-.844-4.112-3.952-5.259-6.225a5.35 5.35 0 01-.286-.73z" fill="#4B369D"/><path d="M470.249 112.244s6.319-5.412 5.857 1.909c-.461 7.32-6.376 9.444-6.376 9.444l.519-11.353z" fill="#EAC2AB"/><path d="M487.145 388.773l-3.888 26.363 8.681 2.208 2.423-27.749c-.005 0-4.569-1.887-7.216-.822z" fill="#D4A79A"/><path d="M449.231 427.804s6.499 1.724 18.732 1.772c12.234.048 25.843-.453 28.183-2.431 2.343-1.979 2.854-17.443-1.205-17.157-4.059.286-5.224 6.265-12.739 1.53-6.442-4.058-10.743 4.744-21.252 7.752-10.51 3.007-14.766 4.212-11.719 8.534z" fill="#FBC04C"/><path d="M465.514 396.903c.335-1.064 1.35-1.922 2.221-2.792 7.977-7.989 5.114-19.114 3.061-28.87-4.864-23.145-3.065-46.941-3.417-70.408-.343-22.903-4.046-45.653-10.382-67.553-2.3-7.959-5.576-20.283 6.046-18.722 5.506.738 10.844.145 16.182-1.271 2.81-.743-.167-1.552 2.81-.743 10.136 2.752 15.931 31.952 14.397 39.203-3.052 14.434-4.085 19.056-3.69 34.089.563 21.32-1.187 42.825 2.604 63.75 1.86 10.254 3.896 20.472 5.883 30.695 1.161 5.962 6.693 18.827 3.984 24.486-3.72 7.774-23.086 2.766-29.418 3.038-4.753.211-11.42-1.275-10.281-4.902z" fill="#4B369D"/><path d="M467.479 389.683l-5.721 26.025 8.505 2.805 4.357-27.511c0 .004-4.423-2.194-7.141-1.319z" fill="#EAC2AB"/><path d="M426.931 425.966s6.363 2.172 18.561 3.078c12.198.906 25.812 1.359 28.284-.453 2.475-1.811 4.067-17.196 0-17.196-4.068 0-5.646 5.883-12.818.633-6.143-4.498-11.051 3.984-21.745 6.244-10.69 2.26-15.021 3.165-12.282 7.694z" fill="url(#paint0_linear)"/><path d="M445.334 396.973c.409-.955 1.482-1.667 2.414-2.41 8.517-6.789 6.437-17.143 5.074-26.192-3.232-21.466.229-43.103 1.522-64.573 1.257-20.955-.84-41.986-5.629-62.414-1.741-7.422-4.142-18.897 7.339-16.725 5.44 1.029 10.809.826 16.231-.123 2.853-.502-.058-1.429 2.853-.502 9.916 3.166 13.773 13.741 11.737 20.266-4.055 13.001-5.528 33.645-6.183 47.411-.932 19.522-4.182 39.066-1.864 58.439 1.134 9.493 2.453 18.96 3.72 28.435.739 5.527 5.36 17.636 2.26 22.639-4.257 6.868-23.222 1.047-29.558.893-4.758-.119-11.302-1.904-9.916-5.144z" fill="#5E48B3"/><path d="M434.271 174.218a90.537 90.537 0 01-13.051 8.213c-3.557 1.834-13.205 8.02-16.943 4.235-1.09-1.108-1.565-2.669-1.957-4.173-2.317-8.877-5.681-17.434-8.97-25.986-2.942-7.637-6.473-15.692-6.2-24.046.281-8.53-.229-20.037-1.042-22.125-.814-2.089-7.485-14.383-7.608-10.557-.123 3.825 6.306 14.342 3.373 13.951s-9.199 2.053-8.46 6.499c.738 4.44 5.43 14.021 5.43 14.021a1188.144 1188.144 0 006.464 25.828c1.68 6.419 3.404 12.839 5.325 19.192 1.869 6.178 3.602 12.883 9.037 16.981.708.536 1.46 1.011 2.26 1.394 6.438 3.077 14.005-.145 20.267-3.566 13.434-7.339 26.168-15.807 39-24.13-2.511-2.467-5.022-4.929-7.529-7.396-.602-.589-1.262-1.213-2.093-1.337-.971-.149-1.899.414-2.704.981-4.006 2.81-7.511 6.252-11.27 9.387a99.884 99.884 0 01-3.329 2.634z" fill="#EAC2AB"/><path d="M477.878 181.055s-13.205-22.156-3.126-26.298c10.078-4.141 20.368 23.739 20.368 23.739l-16.591 6.543-.651-3.984z" fill="url(#paint1_linear)"/><path d="M447.357 229.1c0-.915-1.526-24.711 1.829-39.963 3.355-15.253 0-28.373 11.595-37.523 11.596-9.15 21.05 3.051 24.102 9.457 3.052 6.407 5.611 26.747 6.042 37.523.44 11.015 6.231 34.287 6.464 34.78 4.599 9.563 1.574 8.859 1.174 9.77-2.485 5.663-18.645 6.762-22.527 4.757-8.514-4.397-10.321-6.789-19.498-5.377-3.966.611-8.35-.611-9.529-1.829-1.178-1.218.348-11.595.348-11.595z" fill="#FBC04C"/><path d="M440.888 163.845s21.42-22.833 29.629-12.469c8.214 10.363-20.86 31.719-20.86 31.719l-13.197-17.157 4.428-2.093z" fill="url(#paint2_linear)"/></g><defs><linearGradient id="paint0_linear" x1="426.13" y1="420.285" x2="476.265" y2="420.285" gradientUnits="userSpaceOnUse"><stop stop-color="#F3EA93"/></linearGradient><linearGradient id="paint1_linear" x1="470.96" y1="169.688" x2="495.12" y2="169.688" gradientUnits="userSpaceOnUse"><stop stop-color="#F3EA93"/></linearGradient><linearGradient id="paint2_linear" x1="436.46" y1="165.886" x2="471.979" y2="165.886" gradientUnits="userSpaceOnUse"><stop stop-color="#F3EA93"/></linearGradient><filter id="filter0_d" x="-4" y="0" width="526" height="460" filterUnits="userSpaceOnUse" color-interpolation-filters="sRGB"><feFlood flood-opacity="0" result="BackgroundImageFix"/><feColorMatrix in="SourceAlpha" values="0 0 0 0 0 0 0 0 0 0 0 0 0 0 0 0 0 0 127 0"/><feOffset dy="4"/><feGaussianBlur stdDeviation="2"/><feColorMatrix values="0 0 0 0 0 0 0 0 0 0 0 0 0 0 0 0 0 0 0.25 0"/><feBlend in2="BackgroundImageFix" result="effect1_dropShadow"/><feBlend in="SourceGraphic" in2="effect1_dropShadow" result="shape"/></filter></defs></svg>