<svg width="30" height="30" fill="none" xmlns="http://www.w3.org/2000/svg"><g clip-path="url(#clip0)"><path d="M21.163 14.363l-.873-.385a5.738 5.738 0 00-.13-.418l.485-.835a.5.5 0 00.004-.495 6.64 6.64 0 00-.85-1.189.5.5 0 00-.485-.154l-.918.21a5.612 5.612 0 00-.335-.247l-.09-.971a.5.5 0 00-.287-.408 6.38 6.38 0 00-1.37-.46.502.502 0 00-.495.179l-.64.81h-.359l-.64-.81a.502.502 0 00-.495-.18 6.381 6.381 0 00-1.37.46.5.5 0 00-.287.409l-.09.97a6.02 6.02 0 00-.334.248l-.918-.21a.5.5 0 00-.485.154 6.633 6.633 0 00-.85 1.189.5.5 0 00.004.494l.485.836a5.48 5.48 0 00-.13.414l-.907.387a.5.5 0 00-.303.46v1.358c0 .2.12.382.303.46l.907.387c.04.144.082.282.13.414l-.485.835a.501.501 0 00-.004.495c.239.427.524.825.85 1.19a.5.5 0 00.485.153l.917-.21c.108.085.22.168.336.247l.088.971a.5.5 0 00.288.408c.438.205.898.36 1.37.46a.503.503 0 00.495-.179l.64-.81h.359l.64.81a.5.5 0 00.495.18 6.38 6.38 0 001.37-.46.5.5 0 00.288-.409l.089-.97c.116-.08.227-.162.335-.248l.918.21a.5.5 0 00.484-.154c.327-.364.612-.762.85-1.188a.501.501 0 00-.003-.495l-.485-.835a5.55 5.55 0 00.13-.42l.873-.384a.5.5 0 00.298-.458v-1.358a.5.5 0 00-.298-.458zm-.702 1.49l-.799.353a.5.5 0 00-.285.345 4.625 4.625 0 01-.231.742.5.5 0 00.03.442l.457.789c-.12.19-.25.372-.392.547l-.864-.198a.498.498 0 00-.443.112 4.39 4.39 0 01-.613.453.502.502 0 00-.234.38l-.084.917a5.39 5.39 0 01-.598.204l-.592-.749a.5.5 0 00-.392-.19h-.843a.5.5 0 00-.392.19l-.592.749a5.387 5.387 0 01-.598-.204l-.084-.918a.501.501 0 00-.234-.379 4.536 4.536 0 01-.613-.453.498.498 0 00-.443-.112l-.864.197a5.611 5.611 0 01-.391-.546l.457-.789a.5.5 0 00.03-.442 4.623 4.623 0 01-.232-.742.5.5 0 00-.29-.348L9.5 15.85v-.698l.831-.354a.5.5 0 00.291-.348 4.56 4.56 0 01.232-.742.5.5 0 00-.03-.442l-.457-.789c.12-.19.25-.372.391-.546l.864.198a.499.499 0 00.443-.113 4.45 4.45 0 01.613-.453.502.502 0 00.235-.38l.084-.917a5.25 5.25 0 01.597-.204l.592.75a.5.5 0 00.392.19h.843a.5.5 0 00.392-.19l.592-.75c.203.056.403.124.598.204l.084.918a.5.5 0 00.235.38c.216.133.421.284.612.452a.497.497 0 00.443.112l.864-.197c.142.174.272.357.392.546l-.458.789a.502.502 0 00-.03.443c.099.24.176.488.232.74a.5.5 0 00.286.346l.798.353v.706z" fill="url(#paint0_linear)"/><path d="M15 12a3.5 3.5 0 100 7 3.5 3.5 0 000-7zm0 6a2.5 2.5 0 110-5 2.5 2.5 0 010 5z" fill="url(#paint1_linear)"/><path d="M4.018 13.788c.309-.358.48-.815.482-1.288a2 2 0 10-4 0c.002.473.173.93.483 1.288A1.994 1.994 0 000 15.5V19a.5.5 0 00.5.5h4A.5.5 0 005 19v-3.5a1.994 1.994 0 00-.982-1.712zM2.5 11.5a1 1 0 110 2 1 1 0 010-2zm1.5 7H1v-3a1 1 0 011-1h1a1 1 0 011 1v3z" fill="url(#paint2_linear)"/><path d="M17.955 26a3.003 3.003 0 00-2.455-2.455V23h-1v.545A3.003 3.003 0 0012.045 26H11.5v1h.545a3.003 3.003 0 002.455 2.455V30h1v-.545A3.003 3.003 0 0017.955 27h.545v-1h-.545zm-1.026 1a1.997 1.997 0 01-1.43 1.429v-.43h-1v.43a1.997 1.997 0 01-1.428-1.43h.429v-1h-.43c.183-.7.73-1.246 1.43-1.428V25h1v-.43c.7.183 1.247.73 1.429 1.43h-.43v1h.43z" fill="url(#paint3_linear)"/><path d="M14.899.002a3.002 3.002 0 00-2.9 2.9 2.884 2.884 0 001.5 2.51V7.5a.5.5 0 00.5.5h2a.5.5 0 00.5-.5V5.411a2.883 2.883 0 001.5-2.51A3.002 3.002 0 0014.9.002zm.6 6.998h-1V6h1v1zm.307-2.361a.496.496 0 00-.291.361h-1.03a.496.496 0 00-.291-.361A1.901 1.901 0 0113 2.9a2.003 2.003 0 014 0 1.901 1.901 0 01-1.194 1.738z" fill="url(#paint4_linear)"/><path d="M11 2.5h-1v1h1v-1z" fill="url(#paint5_linear)"/><path d="M20 2.5h-1v1h1v-1z" fill="url(#paint6_linear)"/><path d="M18.998.146l-.707.708.707.707.707-.707-.707-.708z" fill="url(#paint7_linear)"/><path d="M11 .148l-.708.707.707.708.708-.708-.708-.707z" fill="url(#paint8_linear)"/><path d="M11 4.293L10.293 5l.707.707.707-.707L11 4.293z" fill="url(#paint9_linear)"/><path d="M19 4.293L18.293 5l.707.707.707-.707L19 4.293z" fill="url(#paint10_linear)"/><path d="M28 14.5h-1.5a1 1 0 110-2h3v-1H28v-1h-1v1h-.5a2 2 0 000 4H28a1 1 0 110 2h-3v1h2v1h1v-1a2 2 0 100-4z" fill="url(#paint11_linear)"/><path d="M3.998 20.3l-.916.4a12.97 12.97 0 006.815 6.76l.393-.92a11.976 11.976 0 01-6.292-6.24z" fill="url(#paint12_linear)"/><path d="M26.002 20.3a11.985 11.985 0 01-6.202 6.202l.4.916a12.98 12.98 0 006.718-6.718l-.916-.4z" fill="url(#paint13_linear)"/><path d="M21.18 4.06l-.476.88a12.008 12.008 0 014.856 4.856l.88-.476a13.005 13.005 0 00-5.26-5.26z" fill="url(#paint14_linear)"/><path d="M8.82 4.06a13.008 13.008 0 00-5.26 5.26l.88.476A12.004 12.004 0 019.295 4.94l-.475-.88z" fill="url(#paint15_linear)"/></g><defs><linearGradient id="paint0_linear" x1="8.5" y1="15.5" x2="21.461" y2="15.5" gradientUnits="userSpaceOnUse"><stop stop-color="#F3EA93"/><stop offset="1" stop-color="#FBC04C"/></linearGradient><linearGradient id="paint1_linear" x1="11.5" y1="15.5" x2="18.5" y2="15.5" gradientUnits="userSpaceOnUse"><stop stop-color="#F3EA93"/><stop offset="1" stop-color="#FBC04C"/></linearGradient><linearGradient id="paint2_linear" x1="0" y1="15" x2="5" y2="15" gradientUnits="userSpaceOnUse"><stop stop-color="#F3EA93"/><stop offset="1" stop-color="#FBC04C"/></linearGradient><linearGradient id="paint3_linear" x1="11.5" y1="26.5" x2="18.5" y2="26.5" gradientUnits="userSpaceOnUse"><stop stop-color="#F3EA93"/><stop offset="1" stop-color="#FBC04C"/></linearGradient><linearGradient id="paint4_linear" x1="12" y1="4" x2="18" y2="4" gradientUnits="userSpaceOnUse"><stop stop-color="#F3EA93"/><stop offset="1" stop-color="#FBC04C"/></linearGradient><linearGradient id="paint5_linear" x1="10" y1="3" x2="11" y2="3" gradientUnits="userSpaceOnUse"><stop stop-color="#F3EA93"/><stop offset="1" stop-color="#FBC04C"/></linearGradient><linearGradient id="paint6_linear" x1="19" y1="3" x2="20" y2="3" gradientUnits="userSpaceOnUse"><stop stop-color="#F3EA93"/><stop offset="1" stop-color="#FBC04C"/></linearGradient><linearGradient id="paint7_linear" x1="18.644" y1="1.207" x2="19.352" y2=".5" gradientUnits="userSpaceOnUse"><stop stop-color="#F3EA93"/><stop offset="1" stop-color="#FBC04C"/></linearGradient><linearGradient id="paint8_linear" x1="10.646" y1="1.209" x2="11.353" y2=".502" gradientUnits="userSpaceOnUse"><stop stop-color="#F3EA93"/><stop offset="1" stop-color="#FBC04C"/></linearGradient><linearGradient id="paint9_linear" x1="10.647" y1="5.353" x2="11.354" y2="4.646" gradientUnits="userSpaceOnUse"><stop stop-color="#F3EA93"/><stop offset="1" stop-color="#FBC04C"/></linearGradient><linearGradient id="paint10_linear" x1="18.646" y1="5.354" x2="19.354" y2="4.647" gradientUnits="userSpaceOnUse"><stop stop-color="#F3EA93"/><stop offset="1" stop-color="#FBC04C"/></linearGradient><linearGradient id="paint11_linear" x1="24.5" y1="15" x2="30" y2="15" gradientUnits="userSpaceOnUse"><stop stop-color="#F3EA93"/><stop offset="1" stop-color="#FBC04C"/></linearGradient><linearGradient id="paint12_linear" x1="3.082" y1="23.88" x2="10.29" y2="23.88" gradientUnits="userSpaceOnUse"><stop stop-color="#F3EA93"/><stop offset="1" stop-color="#FBC04C"/></linearGradient><linearGradient id="paint13_linear" x1="19.8" y1="23.859" x2="26.918" y2="23.859" gradientUnits="userSpaceOnUse"><stop stop-color="#F3EA93"/><stop offset="1" stop-color="#FBC04C"/></linearGradient><linearGradient id="paint14_linear" x1="20.704" y1="6.928" x2="26.44" y2="6.928" gradientUnits="userSpaceOnUse"><stop stop-color="#F3EA93"/><stop offset="1" stop-color="#FBC04C"/></linearGradient><linearGradient id="paint15_linear" x1="3.56" y1="6.928" x2="9.295" y2="6.928" gradientUnits="userSpaceOnUse"><stop stop-color="#F3EA93"/><stop offset="1" stop-color="#FBC04C"/></linearGradient><clipPath id="clip0"><path fill="#fff" d="M0 0h30v30H0z"/></clipPath></defs></svg>