<svg width="30" height="30" fill="none" xmlns="http://www.w3.org/2000/svg"><path d="M15 0C6.97 0 2 5.97 2 11.5c0 3.673 1.68 7.658 4.5 10.698V27.5a.5.5 0 00.5.5h2v1.5a.5.5 0 00.5.5h11a.5.5 0 00.5-.5V28h2a.5.5 0 00.5-.5v-5.302c2.82-3.04 4.5-7.025 4.5-10.698C28 5.97 23.03 0 15 0zm5 29H10v-1h10v1zm2.5-2h-15v-1h15v1zm0-2h-15v-1h15v1zm.137-3.344A.5.5 0 0022.5 22v1h-15v-1a.501.501 0 00-.137-.344C4.63 18.779 3 14.983 3 11.5 3 6.45 7.588 1 15 1s12 5.45 12 10.5c0 3.483-1.63 7.28-4.363 10.156z" fill="#5E2AD7"/><path d="M24.602 10.388l-1.106-.232a8.592 8.592 0 00-.196-.722l.848-.756a.501.501 0 00.126-.57 9.998 9.998 0 00-1.235-2.106.496.496 0 00-.554-.173l-1.069.35a8.67 8.67 0 00-.533-.532l.35-1.061a.5.5 0 00-.175-.557 10.093 10.093 0 00-2.114-1.23.5.5 0 00-.566.126l-.762.846a8.855 8.855 0 00-.725-.195l-.235-1.174a.5.5 0 00-.49-.402h-2.333a.5.5 0 00-.49.402l-.235 1.174a8.55 8.55 0 00-.725.195l-.761-.846a.503.503 0 00-.567-.126c-.752.323-1.462.736-2.114 1.23a.5.5 0 00-.174.557l.35 1.061c-.186.17-.364.348-.533.532l-1.07-.35A.501.501 0 006.96 6c-.496.65-.91 1.357-1.235 2.107a.5.5 0 00.127.57l.847.756c-.076.24-.141.48-.196.722l-1.106.232a.5.5 0 00-.397.489V13.2a.5.5 0 00.397.489l1.106.231a9 9 0 00.196.723l-.847.756a.501.501 0 00-.127.57c.324.75.74 1.456 1.235 2.105a.5.5 0 00.554.174l1.069-.35c.17.184.348.362.533.531l-.35 1.062a.5.5 0 00.175.556 10.06 10.06 0 002.114 1.23.5.5 0 00.566-.126l.762-.845c.242.076.485.141.728.195l.233 1.102a.5.5 0 00.489.396h2.333a.5.5 0 00.49-.396l.232-1.102a9.22 9.22 0 00.728-.195l.761.845a.5.5 0 00.567.126 10.075 10.075 0 002.114-1.23.5.5 0 00.174-.556l-.35-1.061c.185-.169.363-.347.533-.532l1.07.35a.498.498 0 00.553-.173 9.992 9.992 0 001.236-2.107.5.5 0 00-.127-.57l-.847-.755c.076-.24.141-.481.195-.722l1.107-.232a.5.5 0 00.397-.49v-2.323a.5.5 0 00-.397-.49zM24 12.794l-1.031.217a.5.5 0 00-.39.4c-.076.413-.186.82-.329 1.215a.5.5 0 00.137.543l.82.732c-.216.449-.47.878-.756 1.285l-1.037-.339a.5.5 0 00-.535.15 7.728 7.728 0 01-.897.894.5.5 0 00-.152.54l.339 1.027a9.17 9.17 0 01-1.292.754l-.737-.819a.5.5 0 00-.54-.136 7.789 7.789 0 01-1.223.328.5.5 0 00-.4.39L15.761 21h-1.523l-.216-1.026a.5.5 0 00-.4-.389 7.778 7.778 0 01-1.224-.328.496.496 0 00-.54.137l-.736.818a9.16 9.16 0 01-1.291-.754l.338-1.028a.5.5 0 00-.152-.54 7.704 7.704 0 01-.897-.892.5.5 0 00-.536-.151l-1.036.339a9.042 9.042 0 01-.756-1.285l.82-.732a.5.5 0 00.137-.543 7.56 7.56 0 01-.33-1.216.5.5 0 00-.389-.4L6 12.794v-1.51l1.03-.217a.5.5 0 00.39-.4c.075-.414.186-.82.329-1.216a.5.5 0 00-.137-.543l-.82-.732a9.09 9.09 0 01.756-1.284l1.036.339a.501.501 0 00.537-.15 7.8 7.8 0 01.897-.895.5.5 0 00.151-.538L9.83 4.62c.41-.287.842-.54 1.293-.755l.736.82a.495.495 0 00.54.135 7.688 7.688 0 011.222-.327.5.5 0 00.402-.394L14.243 3h1.513l.22 1.099a.5.5 0 00.402.394c.416.075.825.185 1.223.327.19.069.404.015.54-.136l.736-.819c.45.216.882.468 1.292.755l-.34 1.028a.5.5 0 00.153.539c.323.273.623.571.897.893a.502.502 0 00.536.15l1.036-.338c.287.407.54.836.756 1.284l-.82.732a.5.5 0 00-.137.543c.143.396.253.803.33 1.216a.5.5 0 00.389.4l1.03.216v1.511z" fill="#5E2AD7"/><path d="M19.37 12c.242-.428.445-.877.604-1.342.464-1.391.33-2.547-.378-3.254-.707-.708-1.862-.842-3.254-.378-.465.16-.915.361-1.342.604a7.925 7.925 0 00-1.342-.604c-1.392-.464-2.547-.33-3.254.378-.708.707-.842 1.863-.378 3.254.159.465.361.914.604 1.342a7.911 7.911 0 00-.604 1.342c-.464 1.39-.33 2.547.378 3.254a2.384 2.384 0 001.743.65 4.827 4.827 0 001.511-.272A7.93 7.93 0 0015 16.37c.427.243.877.445 1.342.604.486.17.995.262 1.51.272a2.382 2.382 0 001.744-.65c.707-.707.842-1.863.378-3.254A7.919 7.919 0 0019.37 12zm-8.26-3.89c.287-.252.663-.38 1.044-.354.405.01.806.083 1.188.219.232.079.46.172.681.277a12.168 12.168 0 00-2.771 2.771 6.454 6.454 0 01-.278-.681c-.333-.999-.283-1.812.137-2.231zm2.232 7.915c-.999.334-1.812.284-2.231-.136-.42-.42-.47-1.232-.137-2.23.08-.233.173-.46.278-.682a12.108 12.108 0 002.77 2.77 6.41 6.41 0 01-.68.278zM11.794 12A11.15 11.15 0 0115 8.794 11.15 11.15 0 0118.206 12 11.15 11.15 0 0115 15.206 11.149 11.149 0 0111.794 12zm7.095 3.89c-.42.419-1.232.469-2.231.135a6.481 6.481 0 01-.681-.277 12.17 12.17 0 002.77-2.771c.106.221.199.449.278.681.333.999.283 1.812-.136 2.231zm.136-5.548a6.46 6.46 0 01-.277.681 12.169 12.169 0 00-2.771-2.77c.221-.106.449-.199.681-.278a3.818 3.818 0 011.188-.219c.381-.025.756.102 1.043.355.42.42.47 1.232.136 2.23z" fill="#5E2AD7"/><path d="M15 11.25a.75.75 0 100 1.5.75.75 0 000-1.5zm0 1a.25.25 0 110-.5.25.25 0 010 .5zM2 1V0H1v1H0v1h1v1h1V2h1V1H2zm27 0V0h-1v1h-1v1h1v1h1V2h1V1h-1zM3.5 28v-1h-1v1h-1v1h1v1h1v-1h1v-1h-1zM29 27v-1h-1v1h-1v1h1v1h1v-1h1v-1h-1z" fill="#5E2AD7"/></svg>