<svg width="25" height="25" fill="none" xmlns="http://www.w3.org/2000/svg"><g clip-path="url(#clip0)" fill="#5E2AD7"><path d="M18.333 6.667c0 .254-.016.509-.049.761l.826.107c.038-.288.056-.578.056-.868V6.64l-.833.026zM7.202 2.62a6.625 6.625 0 00-.484.726l.722.416a6 6 0 01.423-.636l-.661-.506zm10.935 5.556a5.754 5.754 0 01-.246.722l.77.32a6.76 6.76 0 00.28-.827l-.804-.215zM6.718 7.44l-.826.11c.038.288.095.574.17.855l.805-.218a5.765 5.765 0 01-.15-.747zM12.5 12.5c-.253 0-.505-.016-.756-.049l-.106.827c.286.037.574.055.862.055h.007L12.5 12.5zM14.204.22l-.212.806c.246.064.487.145.722.242l.318-.77a6.544 6.544 0 00-.828-.278zm4.73 4.695l-.804.22c.067.245.117.494.151.746l.826-.11a6.67 6.67 0 00-.173-.856zM12.5 0h-.019l.02.833c.248 0 .496.016.742.047l.105-.827A6.785 6.785 0 0012.5 0zm3.315.881l-.415.723c.22.127.433.268.635.422l.506-.662a6.797 6.797 0 00-.726-.483zM8.955 11.3l-.506.661c.23.177.473.338.724.484l.417-.722a6.027 6.027 0 01-.635-.423zm7.671-.51c-.18.18-.371.349-.573.504l.508.66c.23-.176.45-.369.655-.575l-.59-.588zM5.887 5.812a6.973 6.973 0 00-.054.855v.013l.834-.013c0-.251.016-.502.047-.75l-.827-.105zm.447-1.683a6.63 6.63 0 00-.279.827l.806.213c.065-.246.146-.488.244-.723l-.771-.317zm.779 4.781l-.77.32c.112.268.242.529.388.78l.72-.419a5.79 5.79 0 01-.338-.682zm10.44.672c-.127.22-.269.432-.424.634l.66.509c.178-.231.34-.474.486-.726l-.722-.417zm-2.133 2.136a5.95 5.95 0 01-.684.338l.322.77a6.8 6.8 0 00.78-.387l-.418-.721zm1.778-9.781l-.588.59c.18.18.35.372.506.573l.658-.511a6.768 6.768 0 00-.576-.652zm-3.182 10.364a5.952 5.952 0 01-.749.15l.11.825a6.72 6.72 0 00.854-.17l-.215-.805zM9.93.513a6.744 6.744 0 00-.78.388l.42.72c.22-.128.448-.241.682-.34L9.93.514zm.344 11.547l-.32.77c.27.111.546.205.828.28l.215-.805a5.714 5.714 0 01-.723-.245zM8.427 1.388c-.23.178-.448.37-.653.577l.59.587c.18-.18.371-.349.573-.504l-.51-.66zM11.61.059a6.773 6.773 0 00-.854.171l.217.805c.246-.066.495-.117.748-.15l-.11-.826zM7.876 10.224l-.66.51c.179.23.37.448.576.653l.589-.59a5.975 5.975 0 01-.505-.573zm10.386-6.913l-.72.42c.128.22.242.448.34.682l.769-.323a6.751 6.751 0 00-.389-.779zm-1.304 1.657a.416.416 0 00-.228-.113l-2.66-.407-1.193-2.542a.417.417 0 00-.754 0L10.93 4.448l-2.66.407a.417.417 0 00-.235.703l1.937 1.984-.458 2.808a.417.417 0 00.612.431L12.5 9.47l2.374 1.311a.416.416 0 00.613-.431l-.458-2.808 1.936-1.984a.417.417 0 00-.007-.59zm-2.673 2.143a.417.417 0 00-.113.358l.354 2.168-1.824-1.008a.416.416 0 00-.403 0l-1.825 1.008.354-2.168a.417.417 0 00-.113-.358L9.198 5.556l2.078-.318a.416.416 0 00.314-.234l.91-1.94.91 1.94a.416.416 0 00.315.235l2.077.317-1.517 1.555z"/><path d="M11.94 16.352l-5-4.333a1.626 1.626 0 00-1.668-.221 29.2 29.2 0 00-.226-.777 20.442 20.442 0 01-.88-5.9v-.538a2.083 2.083 0 00-4.166 0v11.881c0 1.305.715 2.504 1.864 3.122L5.417 21.5v3.084c0 .23.186.417.416.417h5.834c.23 0 .416-.186.416-.416v-7.917a.417.417 0 00-.143-.315zm-.69 7.815h-5V21.25a.417.417 0 00-.219-.367l-3.771-2.03a2.708 2.708 0 01-1.427-2.389V4.584a1.25 1.25 0 112.5 0v.537c.003 2.08.311 4.15.916 6.141.202.67.282.985.314 1.131a1.632 1.632 0 00.264 2.104l3.643 3.311.56-.616-3.642-3.312a.796.796 0 011.02-1.22l4.842 4.197v7.31zM22.917 2.5a2.086 2.086 0 00-2.083 2.083v.538a20.442 20.442 0 01-.88 5.9c-.1.329-.172.581-.226.777a1.638 1.638 0 00-1.682.232l-4.985 4.322a.417.417 0 00-.144.315v7.916c0 .23.186.417.416.417h5.834c.23 0 .416-.186.417-.416v-3.085l3.552-1.913A3.54 3.54 0 0025 16.464V4.584A2.086 2.086 0 0022.917 2.5zm1.25 13.964c0 .998-.547 1.916-1.427 2.388l-3.77 2.031a.417.417 0 00-.22.367v2.917h-5v-7.31l4.83-4.187a.796.796 0 011.032 1.21l-3.642 3.312.56.616 3.643-3.31a1.633 1.633 0 00.264-2.105c.032-.146.112-.462.314-1.131.605-1.991.914-4.06.916-6.141v-.538a1.25 1.25 0 112.5 0v11.881z"/></g><defs><clipPath id="clip0"><path fill="#fff" d="M0 0h25v25H0z"/></clipPath></defs></svg>