<svg width="25" height="25" fill="none" xmlns="http://www.w3.org/2000/svg"><path d="M24.836 5.502L17.753.085a.416.416 0 00-.506 0L12.5 3.715 7.753.085a.416.416 0 00-.506 0L.164 5.502A.417.417 0 000 5.833v18.75c0 .23.187.417.417.417h24.166c.23 0 .417-.187.417-.417V5.833c0-.13-.06-.252-.164-.33zm-10.67 18.664H.834V6.04L7.5.941l6.667 5.098v18.127zm10 0H15V18.75h7.917c.23 0 .416-.187.416-.417V9.167a.417.417 0 00-.416-.417H15V5.833c0-.13-.06-.252-.164-.33l-1.65-1.263L17.5.941l6.667 5.098v18.127zm-4.583-7.083c.23 0 .417-.186.417-.416 0-.69.56-1.25 1.25-1.25.23 0 .417-.187.417-.417v-2.5a.417.417 0 00-.417-.417c-.69 0-1.25-.56-1.25-1.25a.417.417 0 00-.417-.417H15v-.833h7.5v8.333H15v-.833h4.583zM15 16.25v-5h4.209a2.09 2.09 0 001.624 1.625v1.75a2.09 2.09 0 00-1.624 1.625H15z" fill="#5E2AD7"/></svg>