<svg width="468" height="377" fill="none" xmlns="http://www.w3.org/2000/svg"><path d="M298.491 173.641s21.359 34.198 41.772 53.038c20.412 18.841 44.172 38.142 29.782 73.586-14.389 35.443-56.8 49.959-132.641 48.106-75.841-1.852-102.619-2.255-119.252-39.844-16.633-37.589 38.724-46.019 76.538-57.446 37.813-11.428 103.801-77.44 103.801-77.44z" fill="#E3E5FC"/><path opacity=".49" d="M302.138 248.297s10.403 40.115-26.685 49.637c-37.088 9.526-106.291 8.123-132.345-10.41-26.053-18.534 159.03-39.227 159.03-39.227z" fill="url(#paint0_linear)"/><path d="M398.688 317.742c3.673-2.259 5.423-7.209 3.987-11.271-2.35-6.638-8.427-4.4-12.746-7.887-5.087-4.105 1.065-10.561.725-15.408-.371-5.332-5.176-10.482-6.623-15.635-3.319-11.846 10.16-3.006 14.004-4.387 1.607-.578 2.661-2.191 3.033-3.861.943-4.258-.851-7.699 1.482-11.728 2.254-3.89 5.584-5.646 4.623-10.928-.543-2.991-2.39-5.732-2.344-8.773.015-.871.261-1.849 1.022-2.273.579-.325 1.3-.236 1.925-.018 2.076.728 3.441 2.662 5.113 4.093 1.671 1.432 4.358 2.317 5.962.811 1.068-1.003 1.171-2.624 1.389-4.073.39-2.612 2.226-4.425 4.505-2.915 2.483 1.645 1.533 8.123 1.158 10.446-.593 3.683-1.494 7.509-.397 11.078 1.811 5.903 6.762-.71 8.92-2.666 1.768-1.602 4.723-2.562 6.42-.889 3.379 3.33-2.054 7.781-2.769 10.936-.343 1.502.1 3.301 1.436 4.072 3.912 2.263 7.216-1.77 7.809 4.251.408 4.125-3.329 8.058-1.011 12.184 2.026 3.605 8.767 5.136 6.102 10.193-1.636 3.105-8.681 2.966-8.309 7.384.243 2.881 4.576 4.187 4.579 7.078.004 2.177-2.532 3.462-4.708 3.572-2.176.111-4.469-.396-6.473.454-2.276.963-3.594 3.758-2.89 6.128.614 2.059 2.533 3.933 1.929 5.995-.725 2.481-4.165 2.57-6.72 2.174-10.438-1.631-21.616-2.72-31.133 1.863z" fill="#FBC04C"/><path d="M418.401 316.714a.666.666 0 01-.668-.667v-46.529a.67.67 0 011.336 0v46.525a.668.668 0 01-.668.671z" fill="#fff"/><path d="M418.401 298.605a.67.67 0 01-.518-1.092l12.214-15.043a.67.67 0 111.039.846l-12.214 15.043a.68.68 0 01-.521.246zm0-12.706a.66.66 0 01-.433-.157l-14.557-12.238a.67.67 0 01-.082-.942.672.672 0 01.943-.082l14.557 12.238a.67.67 0 01.083.942.657.657 0 01-.511.239z" fill="#fff"/><path d="M396.652 311.221c1.915 12.717 3.64 26.018 6.863 38.289.267 1.02.582 2.091 1.232 2.748.768.774 1.811.789 2.772.767 5.559-.128 11.128.229 16.687.196 5.255-.028 9.595.397 10.145-8.322.189-3.023.668-33.681 3.458-33.681-.011.003-41.157.003-41.157.003z" fill="#5E48B2"/><path d="M434.051 318.82H400.41c-4.183 0-7.609-3.419-7.609-7.602 0-4.18 3.423-7.602 7.609-7.602h33.641c4.183 0 7.609 3.419 7.609 7.602s-3.426 7.602-7.609 7.602zM271.888 39.653s4.408 9.786-2.479 15.81c-6.888 6.025-16.251 1.257-25.339 6.775-9.088 5.517-8.109 12.056-3.94 26.614 4.958 17.317 10.374 16.799 15.243 18.052 4.869 1.256 6.323 14.808 6.873 21.082.55 6.274 1.375 10.539-15.975 19.072-17.351 8.534-7.885 21.586-6.145 38.503 1.926 18.712-20.298 29.505-24.152 34.023-3.855 4.518-12.947 5.271-17.905-4.265-4.958-9.536 20.237-16.557 18.037-31.864-2.204-15.307-15.658-25.607 3.347-40.665s15.25-27.099 8.917-39.395c-6.334-12.295-9.364-17.063-4.134-32.873 5.23-15.811-.275-11.043 6.609-23.592 6.891-12.545 31.955-26.35 41.043-7.277z" fill="#4B369D"/><path d="M259.902 113.928l1.383 25.764 20.187 7.777s-12.139-17.745-10.081-33.545c2.058-15.796-11.489.004-11.489.004z" fill="#D4A79A"/><path d="M306.686 197.51s-1.34-2.452-5.355-15.043c-4.015-12.592-5.466-17.274-11.042-29.459-5.577-12.184-17.18-19.797-17.18-19.797l-14.5-.782s-1.786.111-10.149 7.021c-8.366 6.909-16.397 26.635-16.397 26.635l-3.569 39.227 25.1 18.498 17.74 6.388c-.854-1.138-1.543-2.344-1.972-3.622-2.972-8.826 6.988-57.707 7.323-62.054.336-4.347 8.763 37.11 8.763 37.11l7.299-2.116 5.008 15.942 3.133-16.278 5.798-1.67z" fill="#FBC04C"/><path d="M298.766 218.685l-1.014-3.227-1.619 8.409 2.633-5.182z" fill="url(#paint1_linear)"/><path d="M285.441 201.632s-8.427-41.457-8.763-37.11c-.336 4.347-10.296 53.228-7.323 62.054.428 1.277 1.118 2.484 1.972 3.622l18.251 6.571 6.555-12.906 1.618-8.408-5.008-15.943-7.302 2.12z" fill="#FDC510"/><path d="M285.441 201.632s-8.427-41.457-8.763-37.11c-.336 4.347-10.296 53.228-7.323 62.054.428 1.277 1.118 2.484 1.972 3.622l18.251 6.571 6.555-12.906 1.618-8.408-5.008-15.943-7.302 2.12z" fill="url(#paint2_linear)"/><path d="M137.54 186.043l102.476 4.939 19.887 19.244-95.717-2.409-26.646-21.774z" fill="#000"/><path d="M234.172 194.087l-92.517-6.242c-2.5.193-4.669-1.488-4.844-3.762l-18.644-49.973c-.175-2.27 1.708-4.268 4.205-4.461l92.516 6.246c2.501-.193 4.669 1.488 4.844 3.761l18.644 49.973c.179 2.267-1.707 4.265-4.204 4.458z" fill="#E3E5FC"/><path d="M187.758 166.062c1.099-5.053-2.792-10.187-8.692-11.468-5.899-1.281-11.573 1.776-12.672 6.828-1.099 5.053 2.792 10.187 8.692 11.468 5.899 1.281 11.573-1.776 12.672-6.828z" fill="#A7ADFF"/><path d="M95.383 274.782l-26.16 38.277 11.91 10.054 24.92-41.558c0-.003-5.712-6.424-10.67-6.773z" fill="#D4A79A"/><path d="M16.241 334.409s10.064 3.433 29.347 4.861c19.284 1.431 40.807 2.145 44.719-.714 3.912-2.859 6.426-27.167 0-27.167-6.427 0-8.928 9.294-20.263.999-9.71-7.106-17.468 6.292-34.376 9.865-16.908 3.573-23.756 5.007-19.427 12.156z" fill="#FBC04C"/><path d="M258.221 233.392c-2.311-4.343-14.821-1.895-29.815-7.466-14.996-5.571-24.681-17.274-41.717-30.758-17.037-13.483-15.872-11.146-23.224-11.702-7.352-.557-16.454 19.279-21.591 29.758-10.814 22.063-24.5 41.778-44.944 54.605-6.212 3.898-33.584 18.723-38.156 24.933-9.631 13.07 37.72 13.181 50.102 14.69 12.257 1.492 19.13-5.464 24.088-16.456 5.659-12.538 11.85-24.808 18.033-37.079 3.094-6.138 6.202-12.273 9.235-18.444 1.307-2.659 4.137-12.31 7.291-13.512 9.702-3.691 22.509 25.857 25.231 32.495 5.484 13.373 25.557 28.977 40.143 30.537 14.586 1.559 25.556-8.134 30.34-22.289 4.787-14.154-5.016-29.312-5.016-29.312z" fill="#5E48B2"/><path d="M145.285 277.683l-26.16 38.278 11.91 10.054 24.921-41.558c-.004-.003-5.712-6.424-10.671-6.774z" fill="#EAC2AB"/><path d="M66.143 337.311s10.064 3.433 29.347 4.861c19.284 1.431 40.807 2.145 44.719-.714 3.911-2.859 6.426-27.167 0-27.167-6.427 0-8.928 9.293-20.263.999-9.709-7.106-17.468 6.292-34.376 9.865-16.908 3.572-23.76 5.007-19.427 12.156z" fill="#FBC04C"/><path d="M296.088 233.392c-2.208-4.343-14.168-1.895-28.5-7.466s-23.592-17.274-39.878-30.758c-16.286-13.483-15.172-11.146-22.199-11.702-7.026-.557-15.729 19.279-20.637 29.758-15.1 32.231-46.176 53.863-74.458 73.764-1.758 1.235-3.73 2.951-3.366 5.068.186 1.077.958 1.948 1.747 2.708 10.492 10.119 30.147 14.669 44.272 14.009 14.222-.664 21.942-12.52 27.315-24.244 9.609-20.975 18.997-42.589 30.672-62.497 4.387-7.473 18.369 22.699 19.583 25.508 7.241 16.774 21.617 35.258 41.247 37.453 13.942 1.559 24.427-8.134 29.003-22.289 4.569-14.154-4.801-29.312-4.801-29.312z" fill="#4B369D"/><path d="M241.867 59.083s-10.781 7.944-6.491 25.79c4.291 17.844 17.633 33.084 23.017 32.01 14.886-2.97 20.105-13.48 25.267-22.5 6.33-11.06-6.237-38.041-6.237-38.041l-11.871-6.396-23.685 9.137z" fill="#EAC2AB"/><path d="M263.351 51.199s7.491 2.509 14.075 13.048c6.584 10.54 2.265 12.26 2.265 26.39 0 4.129-.775 8.197-3.015 11.716-1.626 2.556-3.944 4.568-5.627 7.074-2.125 3.162-2.804 6.731-2.632 10.503.36 7.977 1.636 14.601 8.727 19.105 7.666 4.868 11.242 11.371 13.257 20.158 2.411 10.521 19.773 16.474 25.831 12.459 6.059-4.015-12.014-1.335-8.43-18.648 3.579-17.316 4.808-24.665-5.659-29.476-10.467-4.811-5.466-6.082.043-16.621 5.508-10.539-8.692-10.41-3.087-28.755 6.47-21.175.608-44.773-31.068-38.249-31.676 6.524-4.68 11.296-4.68 11.296z" fill="#4B369D"/><path d="M255.638 71.35c9.088-5.522 6.888-9.865 13.775-15.886 6.884-6.025 2.479-15.81 2.479-15.81-9.088-19.074-34.151-5.272-41.039 7.276-6.887 12.549-1.375 7.78-6.608 23.591-3.609 10.897-3.287 16.55-.665 23.038l14.815 5.993c-5.998-22.735 10.406-24.052 17.243-28.203z" fill="#4B369D"/><path d="M292.519 218.013s0 6.128-2.343 5.015c-2.344-1.114-24.317-14.822-27.218-18.052-2.901-3.234-9.706-14.933-10.038-17.274-.336-2.341.782-2.452-3.794-1.785-4.572.668-12.828 3.234-11.599 4.679 1.225 1.449 4.683.447 4.683.447s-4.051 2.562-2.083 2.898c1.969.335 7.77-.782 7.77 1.002 0 1.785-.336 7.802 1.004 10.811 1.34 3.009 3.012 4.011 7.363 5.014 4.351 1.003 5.119.668 8.695 4.347 3.576 3.68 23.541 21.397 26.106 22.289 2.565.892 3.68 2.452 6.806-3.234 3.126-5.685 5.355-10.029 5.576-18.944.222-8.915-.782-17.495-.782-17.495l-9.928 1.784c.007 0 .897 10.029-.218 18.498z" fill="#EAC2AB"/><path d="M324.634 104.809c1.779-8.144 5.752-16.264 8.667-24.084 1.55-4.154 4.954-9.757 5.301-14.208.114-1.46 1.507-2.54 3.111-2.416l59.423-4.011c1.604.124 2.815 1.406 2.701 2.865l-11.975 32.096c-.114 1.46-1.507 2.541-3.111 2.416l-47.923 3.059c-2.937 1.781-7.595 3.562-10.535 5.336-3.262 1.966-7.291 6.42-5.659-1.053z" fill="#E3E5FC"/><path d="M367.638 84.373l19.309-.839a2.366 2.366 0 002.257-2.463 2.367 2.367 0 00-2.465-2.255l-19.308.839a2.368 2.368 0 00-2.258 2.462 2.373 2.373 0 002.465 2.256zm-13.886-7.991l34.981-1.517a2.368 2.368 0 002.258-2.463 2.368 2.368 0 00-2.465-2.255l-34.981 1.517a2.366 2.366 0 00-2.257 2.462 2.37 2.37 0 002.464 2.256z" fill="#fff"/><path d="M150.675 112.104c-2.057-9.429-6.655-18.826-10.034-27.877-1.794-4.808-5.737-11.293-6.138-16.446-.132-1.689-1.743-2.941-3.6-2.795l-68.782-4.643c-1.858.143-3.258 1.627-3.126 3.315l13.86 37.154c.133 1.688 1.744 2.941 3.601 2.794l55.472 3.544c3.401 2.06 8.788 4.126 12.196 6.178 3.776 2.274 8.441 7.431 6.551-1.224z" fill="#E3E5FC"/><path d="M100.899 88.449l-22.349-.97a2.744 2.744 0 01-2.615-2.853 2.744 2.744 0 012.854-2.612l22.349.97a2.744 2.744 0 012.615 2.852 2.747 2.747 0 01-2.854 2.613zm16.072-9.247l-40.493-1.756a2.744 2.744 0 01-2.615-2.852 2.745 2.745 0 012.854-2.612l40.493 1.756a2.744 2.744 0 012.615 2.851 2.746 2.746 0 01-2.854 2.613z" fill="#fff"/><g opacity=".72"><path opacity=".72" d="M188.439 57.102c-1.325-6.07-4.287-12.12-6.459-17.948-1.154-3.095-3.694-7.27-3.951-10.59-.086-1.088-1.122-1.89-2.318-1.798l-44.287-2.987c-1.196.092-2.097 1.049-2.014 2.134l8.923 23.92c.086 1.088 1.122 1.89 2.319 1.798l35.716 2.28c2.19 1.328 5.659 2.656 7.852 3.977 2.433 1.466 5.433 4.785 4.219-.786z" fill="#E3E5FC"/><path opacity=".72" d="M156.388 41.87l-14.39-.625a1.764 1.764 0 01-1.682-1.834 1.764 1.764 0 011.836-1.681l14.389.624a1.765 1.765 0 011.683 1.835 1.765 1.765 0 01-1.836 1.68zm10.349-5.953l-26.071-1.132a1.766 1.766 0 01-1.683-1.834 1.766 1.766 0 011.837-1.681l26.071 1.131a1.764 1.764 0 011.682 1.835 1.765 1.765 0 01-1.836 1.68z" fill="#fff"/></g><path d="M191.136 91.71l-22.349-.97a2.744 2.744 0 01-2.615-2.852 2.746 2.746 0 012.855-2.612l22.348.97a2.744 2.744 0 012.615 2.852 2.749 2.749 0 01-2.854 2.613zm2.229 10.911l-22.349-.97a2.745 2.745 0 01-2.615-2.852 2.746 2.746 0 012.855-2.613l22.348.971a2.744 2.744 0 012.615 2.852 2.744 2.744 0 01-2.854 2.612zm3.962 11.203l-22.349-.97a2.745 2.745 0 01-2.615-2.852 2.746 2.746 0 012.855-2.613l22.348.971a2.744 2.744 0 012.615 2.852 2.743 2.743 0 01-2.854 2.612z" fill="#E3E5FC"/><defs><linearGradient id="paint0_linear" x1="229.916" y1="297.133" x2="213.882" y2="239.139" gradientUnits="userSpaceOnUse"><stop stop-color="#A7ADFF"/><stop offset="1" stop-color="#E3E5FC"/></linearGradient><linearGradient id="paint1_linear" x1="297.03" y1="219.762" x2="274.711" y2="139.032" gradientUnits="userSpaceOnUse"><stop stop-color="#A7ADFF"/><stop offset="1" stop-color="#E3E5FC"/></linearGradient><linearGradient id="paint2_linear" x1="268.802" y1="200.485" x2="297.751" y2="200.485" gradientUnits="userSpaceOnUse"><stop stop-color="#F3EA93"/></linearGradient></defs></svg>