<svg width="30" height="30" fill="none" xmlns="http://www.w3.org/2000/svg"><g filter="url(#filter0_d)" fill="#F3E68D"><path d="M9.039 13.85v8.142h1.718V12.1l-1.719 1.75zm3.349 8.142h1.718v-8.787l-1.718-1.718v10.505zm-6.741 0h1.717v-6.435l-1.717 1.751v4.684z"/><path d="M20.847.007v1.718h2.264l-7.814 7.813-3.465-3.465L4 14.137l1.232 1.197L11.85 8.52l3.447 3.447 8.985-8.985v2.135H26V.007h-5.153z"/><path d="M22.522 7.172v14.82h1.718V6.921h-1.467l-.251.251zm-6.785 14.82h1.718V12.24l-1.718 1.717v8.036zm3.393 0h1.717V8.848l-1.717 1.717v11.428z"/></g><defs><filter id="filter0_d" x="0" y="0" width="30" height="30" filterUnits="userSpaceOnUse" color-interpolation-filters="sRGB"><feFlood flood-opacity="0" result="BackgroundImageFix"/><feColorMatrix in="SourceAlpha" values="0 0 0 0 0 0 0 0 0 0 0 0 0 0 0 0 0 0 127 0"/><feOffset dy="4"/><feGaussianBlur stdDeviation="2"/><feColorMatrix values="0 0 0 0 0 0 0 0 0 0 0 0 0 0 0 0 0 0 0.25 0"/><feBlend in2="BackgroundImageFix" result="effect1_dropShadow"/><feBlend in="SourceGraphic" in2="effect1_dropShadow" result="shape"/></filter></defs></svg>