<svg width="25" height="25" fill="none" xmlns="http://www.w3.org/2000/svg"><g clip-path="url(#clip0)" fill="#5E2AD7"><path d="M7.5 2.917a1.667 1.667 0 100 3.333 1.667 1.667 0 000-3.333zm0 2.5a.833.833 0 110-1.667.833.833 0 010 1.667zm10-2.5a1.667 1.667 0 100 3.333 1.667 1.667 0 000-3.333zm0 2.5a.833.833 0 110-1.667.833.833 0 010 1.667z"/><path d="M24.836 5.502L17.753.085a.416.416 0 00-.506 0L12.5 3.715 7.753.085a.416.416 0 00-.506 0L.164 5.502A.417.417 0 000 5.833v18.75c0 .23.187.417.417.417h24.166c.23 0 .417-.187.417-.417V5.833c0-.13-.06-.252-.164-.33zm-10.67 18.664H.834V6.04L7.5.941l6.667 5.098v18.127zm10 0H15V18.75h7.917c.23 0 .416-.187.416-.417V9.167a.417.417 0 00-.416-.417H15V5.833c0-.13-.06-.252-.164-.33l-1.65-1.263L17.5.941l6.667 5.098v18.127zm-4.583-7.083c.23 0 .417-.186.417-.416 0-.69.56-1.25 1.25-1.25.23 0 .417-.187.417-.417v-2.5a.417.417 0 00-.417-.417c-.69 0-1.25-.56-1.25-1.25a.417.417 0 00-.417-.417H15v-.833h7.5v8.333H15v-.833h4.583zM15 16.25v-5h4.209a2.09 2.09 0 001.624 1.625v1.75a2.09 2.09 0 00-1.624 1.625H15z"/><path d="M7.5 8.333a5 5 0 100 10 5 5 0 000-10zm0 9.167a4.167 4.167 0 110-8.333 4.167 4.167 0 010 8.333z"/><path d="M8.45 13.279a3.254 3.254 0 00-.947-.424c-.632-.203-.837-.308-.837-.772a.855.855 0 01.833-.833c.46 0 .833.373.834.833h.833a1.665 1.665 0 00-1.25-1.607V10h-.833v.479a1.69 1.69 0 00-1.25 1.604c0 1.11.818 1.373 1.416 1.565.251.065.49.168.711.305a.81.81 0 01-.406 1.462.787.787 0 01-.61-.216.842.842 0 01-.278-.616h-.833a1.667 1.667 0 001.25 1.608v.476h.833v-.477a1.64 1.64 0 00.533-2.911z"/></g><defs><clipPath id="clip0"><path fill="#fff" d="M0 0h25v25H0z"/></clipPath></defs></svg>