<svg width="30" height="30" fill="none" xmlns="http://www.w3.org/2000/svg"><g filter="url(#filter0_d)" fill="#F3E68D"><path d="M21.102 5.327H18.35V3.283C18.35 1.473 16.848 0 15 0s-3.352 1.473-3.352 3.283v2.044h-2.75v9.797h12.204V5.327zm-7.736-2.044c0-.863.733-1.564 1.633-1.564s1.633.701 1.633 1.564v2.044h-3.266V3.283zm6.017 10.122h-8.766v-6.36h8.766v6.36z"/><path d="M14.14 10.586v1.101h1.72v-1.101a1.29 1.29 0 10-1.719 0zm9.712 2.82H22.82v1.719h1.032a.43.43 0 01.43.43v4.297a.43.43 0 01-.43.43H6.148a.43.43 0 01-.43-.43v-4.297a.43.43 0 01.43-.43H7.18v-1.719H6.148A2.15 2.15 0 004 15.555v4.297A2.15 2.15 0 006.148 22h17.704A2.15 2.15 0 0026 19.852v-4.297a2.15 2.15 0 00-2.148-2.149z"/><path d="M13.281 18.563a.86.86 0 100-1.72.86.86 0 000 1.72zm6.875 0a.86.86 0 100-1.72.86.86 0 000 1.72zm-10.312 0a.86.86 0 100-1.72.86.86 0 000 1.72zm6.875 0a.86.86 0 100-1.72.86.86 0 000 1.72z"/></g><defs><filter id="filter0_d" x="0" y="0" width="30" height="30" filterUnits="userSpaceOnUse" color-interpolation-filters="sRGB"><feFlood flood-opacity="0" result="BackgroundImageFix"/><feColorMatrix in="SourceAlpha" values="0 0 0 0 0 0 0 0 0 0 0 0 0 0 0 0 0 0 127 0"/><feOffset dy="4"/><feGaussianBlur stdDeviation="2"/><feColorMatrix values="0 0 0 0 0 0 0 0 0 0 0 0 0 0 0 0 0 0 0.25 0"/><feBlend in2="BackgroundImageFix" result="effect1_dropShadow"/><feBlend in="SourceGraphic" in2="effect1_dropShadow" result="shape"/></filter></defs></svg>