<svg width="30" height="30" fill="none" xmlns="http://www.w3.org/2000/svg"><g filter="url(#filter0_d)" fill="#F3E68D"><path d="M19.125 12.762a3.441 3.441 0 003.438-3.438 3.441 3.441 0 00-3.438-3.437 3.441 3.441 0 00-3.438 3.437 3.441 3.441 0 003.438 3.438zm0-5.157v1.72h1.719a1.72 1.72 0 01-1.719 1.718 1.72 1.72 0 01-1.719-1.719 1.72 1.72 0 011.719-1.719zM14.14 5.2h-1.718v6.96h-.86V8.637H9.845v3.523h-.86V6.918H7.266v6.96h6.875V5.2z"/><path d="M15.86 1.762V0h-1.72v1.762H4v12.976a2.581 2.581 0 002.578 2.578h7.563v2.965h-3.438V22h8.594v-1.719h-3.438v-2.965h7.563A2.581 2.581 0 0026 14.738V1.762H15.86zm8.421 12.976a.86.86 0 01-.86.86H6.579a.86.86 0 01-.86-.86V3.48h18.563v11.258z"/></g><defs><filter id="filter0_d" x="0" y="0" width="30" height="30" filterUnits="userSpaceOnUse" color-interpolation-filters="sRGB"><feFlood flood-opacity="0" result="BackgroundImageFix"/><feColorMatrix in="SourceAlpha" values="0 0 0 0 0 0 0 0 0 0 0 0 0 0 0 0 0 0 127 0"/><feOffset dy="4"/><feGaussianBlur stdDeviation="2"/><feColorMatrix values="0 0 0 0 0 0 0 0 0 0 0 0 0 0 0 0 0 0 0.25 0"/><feBlend in2="BackgroundImageFix" result="effect1_dropShadow"/><feBlend in="SourceGraphic" in2="effect1_dropShadow" result="shape"/></filter></defs></svg>