<svg width="22" height="22" fill="none" xmlns="http://www.w3.org/2000/svg"><path d="M19.422 0H2.578A2.581 2.581 0 000 2.578v15.125a2.581 2.581 0 002.578 2.578h.86V22h1.718v-1.719h11.688V22h1.718v-1.719h.86A2.581 2.581 0 0022 17.703V2.578A2.581 2.581 0 0019.422 0zm.86 17.703a.86.86 0 01-.86.86H2.578a.86.86 0 01-.86-.86v-.86h1.72v-1.718h-1.72V5.156h1.72V3.438h-1.72v-.86a.86.86 0 01.86-.86h16.844a.86.86 0 01.86.86v15.125z" fill="#F3E68D"/><path d="M15.841 9.805a4 4 0 01-3.982 4.332 4 4 0 01-3.996-3.996 4 4 0 016.116-3.39L12.958 7.81a2.581 2.581 0 00-3.678 2.33 2.581 2.581 0 002.578 2.578 2.581 2.581 0 002.32-3.701l2.286-2.366-.61-.597a5.683 5.683 0 00-3.996-1.63 5.721 5.721 0 00-5.714 5.716 5.721 5.721 0 005.714 5.714 5.721 5.721 0 005.432-7.5l-1.45 1.45zM11.86 11a.86.86 0 010-1.719.86.86 0 010 1.719z" fill="#F3E68D"/></svg>