<svg width="87" height="82" fill="none" xmlns="http://www.w3.org/2000/svg"><g filter="url(#filter0_d)"><rect x="12" y="11" width="63" height="58" rx="15" fill="#fff"/></g><g clip-path="url(#clip0)"><path d="M33.603 36.943c0-5.413 3.978-9.896 9.169-10.687a10.884 10.884 0 00-1.641-.124c-5.97 0-10.81 4.84-10.81 10.81 0 5.97 4.84 10.81 10.81 10.81.558 0 1.106-.042 1.641-.123-5.191-.791-9.169-5.274-9.169-10.686z" fill="#F3EA93"/><path d="M40.952 48.884c-6.584 0-11.942-5.357-11.942-11.942S34.367 25 40.952 25s11.942 5.357 11.942 11.942-5.357 11.942-11.942 11.942zm0-21.62c-5.336 0-9.678 4.341-9.678 9.678 0 5.337 4.342 9.678 9.678 9.678 5.337 0 9.678-4.341 9.678-9.678 0-5.337-4.341-9.678-9.678-9.678zM56.856 54c-.29 0-.579-.11-.8-.331l-5.065-5.065a1.132 1.132 0 011.6-1.601l5.066 5.065a1.132 1.132 0 01-.8 1.933z" fill="#5614B0"/></g><defs><clipPath id="clip0"><path fill="#fff" transform="translate(29 25)" d="M0 0h29v29H0z"/></clipPath><filter id="filter0_d" x="0" y="0" width="87" height="82" filterUnits="userSpaceOnUse" color-interpolation-filters="sRGB"><feFlood flood-opacity="0" result="BackgroundImageFix"/><feColorMatrix in="SourceAlpha" values="0 0 0 0 0 0 0 0 0 0 0 0 0 0 0 0 0 0 127 0"/><feOffset dy="1"/><feGaussianBlur stdDeviation="6"/><feColorMatrix values="0 0 0 0 0 0 0 0 0 0 0 0 0 0 0 0 0 0 0.1 0"/><feBlend in2="BackgroundImageFix" result="effect1_dropShadow"/><feBlend in="SourceGraphic" in2="effect1_dropShadow" result="shape"/></filter></defs></svg>