<svg width="28" height="30" fill="none" xmlns="http://www.w3.org/2000/svg"><g filter="url(#filter0_d)" fill="#F3E68D"><path d="M13.078 12.285l-2.784-2.649-1.185 1.246 4.065 3.869 6.194-6.896-1.28-1.15-5.01 5.58z"/><path d="M21.068 2.801c-2.084-.373-4.003-1.511-4.962-2.157a3.76 3.76 0 00-4.212 0c-.959.646-2.878 1.784-4.962 2.157a2.58 2.58 0 00-2.13 2.54v5.186c0 1.714.479 3.384 1.424 4.965.74 1.236 1.765 2.418 3.046 3.513 2.155 1.84 4.289 2.8 4.378 2.84L14 22l.35-.155c.09-.04 2.223-1 4.378-2.84 1.281-1.095 2.306-2.276 3.046-3.513.945-1.58 1.424-3.251 1.424-4.965V5.341a2.58 2.58 0 00-2.13-2.54zm.411 7.726c0 2.555-1.29 4.958-3.835 7.143A19.073 19.073 0 0114 20.104c-1.521-.773-7.48-4.148-7.48-9.577V5.341c0-.417.301-.773.715-.847 2.394-.43 4.548-1.703 5.619-2.423a2.046 2.046 0 012.292 0c1.071.72 3.225 1.993 5.619 2.423.414.074.714.43.714.846v5.187z"/></g><defs><filter id="filter0_d" x="-1" y="0" width="30" height="30" filterUnits="userSpaceOnUse" color-interpolation-filters="sRGB"><feFlood flood-opacity="0" result="BackgroundImageFix"/><feColorMatrix in="SourceAlpha" values="0 0 0 0 0 0 0 0 0 0 0 0 0 0 0 0 0 0 127 0"/><feOffset dy="4"/><feGaussianBlur stdDeviation="2"/><feColorMatrix values="0 0 0 0 0 0 0 0 0 0 0 0 0 0 0 0 0 0 0.25 0"/><feBlend in2="BackgroundImageFix" result="effect1_dropShadow"/><feBlend in="SourceGraphic" in2="effect1_dropShadow" result="shape"/></filter></defs></svg>