<svg width="87" height="82" fill="none" xmlns="http://www.w3.org/2000/svg"><g filter="url(#filter0_d)"><rect x="12" y="11" width="63" height="58" rx="15" fill="#fff"/></g><path d="M55.574 52.367a2.945 2.945 0 110-4.89 2.942 2.942 0 00-1.303 2.445c0 1.018.517 1.916 1.303 2.445zm-11.677-2.502c0-1.018.516-1.916 1.302-2.445a2.945 2.945 0 100 4.89 2.942 2.942 0 01-1.303-2.445zm-10.479.057c0-1.019.517-1.916 1.303-2.445a2.945 2.945 0 100 4.89 2.942 2.942 0 01-1.303-2.445z" fill="#CEE1F2"/><path d="M46.558 32.363a2.75 2.75 0 00-.941-2.049 3.181 3.181 0 00-2.118-.783c-.549 0-.963-.243-.963-.566 0-.313.254-.567.567-.567.402 0 .892.046 1.741.377a1.133 1.133 0 00.822-2.112 9.064 9.064 0 00-.977-.322v-.208a1.133 1.133 0 00-2.266 0v.083a2.837 2.837 0 00-2.152 2.749c0 1.614 1.388 2.832 3.228 2.832.43 0 .793.26.793.566 0 .307-.272.567-.595.567-.236 0-1.045-.078-1.932-.43a1.133 1.133 0 10-.837 2.105 8.843 8.843 0 001.495.443v.147a1.133 1.133 0 102.266 0v-.175a2.839 2.839 0 001.869-2.657z" fill="#FF5CF0"/><path d="M53.978 43.86a1.133 1.133 0 01-1.132-1.132v-5.155c0-2.102-1.486-3.961-3.533-4.42a1.133 1.133 0 11.495-2.211 6.821 6.821 0 013.79 2.355 6.812 6.812 0 011.513 4.276v5.155c0 .626-.507 1.133-1.133 1.133zm-19.88-1.132v-5.155c0-2.102 1.486-3.961 3.533-4.42a1.133 1.133 0 10-.496-2.211 6.821 6.821 0 00-3.79 2.355 6.812 6.812 0 00-1.513 4.276v5.155a1.133 1.133 0 102.266 0zm10.592-.113V39.16a1.133 1.133 0 10-2.266 0v3.455a1.133 1.133 0 102.266 0zm2.945 7.306a4.083 4.083 0 00-4.078-4.078 4.083 4.083 0 00-4.079 4.078A4.083 4.083 0 0043.557 54a4.083 4.083 0 004.078-4.078zm-2.266 0c0 1-.813 1.813-1.812 1.813-1 0-1.813-.813-1.813-1.813 0-.999.813-1.812 1.813-1.812s1.812.813 1.812 1.813zm12.631 0a4.083 4.083 0 00-4.078-4.078 4.083 4.083 0 00-4.078 4.078A4.083 4.083 0 0053.922 54 4.083 4.083 0 0058 49.922zm-2.266 0c0 1-.813 1.813-1.812 1.813-1 0-1.813-.813-1.813-1.813 0-.999.813-1.812 1.813-1.812s1.812.813 1.812 1.813zm-18.578 0a4.083 4.083 0 00-4.078-4.078A4.083 4.083 0 0029 49.921 4.083 4.083 0 0033.078 54a4.083 4.083 0 004.078-4.078zm-2.265 0c0 1-.813 1.813-1.813 1.813s-1.812-.813-1.812-1.813c0-.999.813-1.812 1.812-1.812 1 0 1.813.813 1.813 1.813z" fill="#1428BF"/><defs><filter id="filter0_d" x="0" y="0" width="87" height="82" filterUnits="userSpaceOnUse" color-interpolation-filters="sRGB"><feFlood flood-opacity="0" result="BackgroundImageFix"/><feColorMatrix in="SourceAlpha" values="0 0 0 0 0 0 0 0 0 0 0 0 0 0 0 0 0 0 127 0"/><feOffset dy="1"/><feGaussianBlur stdDeviation="6"/><feColorMatrix values="0 0 0 0 0 0 0 0 0 0 0 0 0 0 0 0 0 0 0.1 0"/><feBlend in2="BackgroundImageFix" result="effect1_dropShadow"/><feBlend in="SourceGraphic" in2="effect1_dropShadow" result="shape"/></filter></defs></svg>