<svg width="87" height="82" fill="none" xmlns="http://www.w3.org/2000/svg"><g filter="url(#filter0_d)"><rect x="12" y="11" width="63" height="58" rx="15" fill="#fff"/></g><g clip-path="url(#clip0)"><path d="M46.25 45.773a6.514 6.514 0 110-12.545 6.517 6.517 0 000 12.545zM34.532 39.5c0-6.807 5.088-12.425 11.668-13.26a13.476 13.476 0 00-1.699-.107c-7.383 0-13.367 5.985-13.367 13.367 0 7.383 5.985 13.367 13.367 13.367.576 0 1.143-.036 1.7-.107-6.58-.835-11.669-6.453-11.669-13.26z" fill="#F3EA93"/><path d="M44.5 54a14.406 14.406 0 01-10.253-4.247A14.406 14.406 0 0130 39.5c0-3.873 1.508-7.514 4.247-10.253A14.406 14.406 0 0144.5 25c4.663 0 9.072 2.25 11.794 6.02a1.133 1.133 0 01-1.837 1.327 12.307 12.307 0 00-9.957-5.081c-6.746 0-12.234 5.488-12.234 12.234 0 6.746 5.488 12.234 12.234 12.234 3.937 0 7.66-1.9 9.956-5.08a1.133 1.133 0 011.837 1.325A14.579 14.579 0 0144.5 54zm5.458-9.18a1.133 1.133 0 10-1.627-1.577 5.298 5.298 0 01-3.831 1.638 5.387 5.387 0 01-5.38-5.381 5.387 5.387 0 015.38-5.38 5.29 5.29 0 013.83 1.637 1.133 1.133 0 001.628-1.576 7.545 7.545 0 00-5.458-2.327c-4.216 0-7.647 3.43-7.647 7.646 0 4.216 3.43 7.647 7.647 7.647a7.545 7.545 0 005.458-2.328z" fill="#5614B0"/><path d="M57.328 40.652a1.614 1.614 0 01-.48-1.152c0-.435.17-.844.48-1.152l1.338-1.33a1.133 1.133 0 10-1.597-1.607l-1.338 1.33a3.875 3.875 0 00-.982 1.626H44.5a1.133 1.133 0 100 2.266h10.25c.184.607.517 1.164.98 1.626l1.339 1.33a1.13 1.13 0 001.602-.006 1.133 1.133 0 00-.005-1.602l-1.338-1.33z" fill="#5614B0"/></g><defs><clipPath id="clip0"><path fill="#fff" transform="translate(30 25)" d="M0 0h29v29H0z"/></clipPath><filter id="filter0_d" x="0" y="0" width="87" height="82" filterUnits="userSpaceOnUse" color-interpolation-filters="sRGB"><feFlood flood-opacity="0" result="BackgroundImageFix"/><feColorMatrix in="SourceAlpha" values="0 0 0 0 0 0 0 0 0 0 0 0 0 0 0 0 0 0 127 0"/><feOffset dy="1"/><feGaussianBlur stdDeviation="6"/><feColorMatrix values="0 0 0 0 0 0 0 0 0 0 0 0 0 0 0 0 0 0 0.1 0"/><feBlend in2="BackgroundImageFix" result="effect1_dropShadow"/><feBlend in="SourceGraphic" in2="effect1_dropShadow" result="shape"/></filter></defs></svg>