<svg width="87" height="82" fill="none" xmlns="http://www.w3.org/2000/svg"><g filter="url(#filter0_d)"><rect x="12" y="11" width="63" height="58" rx="15" fill="#fff"/></g><path d="M41.286 32.647c0-2.896 1.89-5.35 4.503-6.197a6.514 6.514 0 100 12.394 6.516 6.516 0 01-4.503-6.197z" fill="#F3EA93"/><path d="M54.525 54a1.133 1.133 0 01-1.132-1.133c0-4.435-3.608-8.043-8.043-8.043h-1.7c-4.434 0-8.043 3.608-8.043 8.043a1.133 1.133 0 11-2.265 0c0-5.684 4.624-10.308 10.308-10.308h1.7c5.684 0 10.308 4.624 10.308 10.308 0 .626-.507 1.133-1.133 1.133zm-2.492-21.353c0-4.217-3.43-7.647-7.646-7.647-4.217 0-7.647 3.43-7.647 7.647 0 4.216 3.43 7.646 7.647 7.646 4.216 0 7.646-3.43 7.646-7.646zm-2.265 0a5.387 5.387 0 01-5.381 5.38 5.387 5.387 0 01-5.381-5.38 5.387 5.387 0 015.38-5.381 5.387 5.387 0 015.382 5.38z" fill="#5614B0"/><path d="M44.443 54c-.196 0-.392-.052-.568-.154l-4.588-2.662a1.133 1.133 0 01-.398-1.57l1.7-2.776a1.133 1.133 0 111.932 1.183l-1.094 1.786 3.023 1.754 3.101-1.756-1.12-1.77a1.133 1.133 0 111.915-1.211l1.756 2.775a1.133 1.133 0 01-.4 1.591l-4.7 2.662a1.131 1.131 0 01-.559.148z" fill="#F3EA93"/><defs><filter id="filter0_d" x="0" y="0" width="87" height="82" filterUnits="userSpaceOnUse" color-interpolation-filters="sRGB"><feFlood flood-opacity="0" result="BackgroundImageFix"/><feColorMatrix in="SourceAlpha" values="0 0 0 0 0 0 0 0 0 0 0 0 0 0 0 0 0 0 127 0"/><feOffset dy="1"/><feGaussianBlur stdDeviation="6"/><feColorMatrix values="0 0 0 0 0 0 0 0 0 0 0 0 0 0 0 0 0 0 0.1 0"/><feBlend in2="BackgroundImageFix" result="effect1_dropShadow"/><feBlend in="SourceGraphic" in2="effect1_dropShadow" result="shape"/></filter></defs></svg>